<?xml version="1.0" encoding="UTF-8"?><svg id="Layer_1" xmlns="http://www.w3.org/2000/svg" viewBox="0 0 512 512"><defs><style>.cls-1,.cls-2{stroke-width:0px;}.cls-2{fill:#fff;}</style></defs><path class="cls-2" d="m512,512H0V0h512v512Zm-275.09-241.85c0,22,.01,44-.01,66.01,0,2.61-.25,5.12,3.63,4.96,19.94-.82,40.25.56,59.78-2.72,93.42-15.67,155.75-101.14,140.47-194.14-11.4-69.41-52.67-114.8-119.64-136.5C294.81-.77,267.55.52,240.41.69c-3.59.02-3.45,2.2-3.45,4.64.01,14.51,0,29.01-.01,43.52,0,7.69,0,15.38,0,23.07C225.79,23.37,182.88-4.47,137.69,2.82c-38.52,6.21-69.58,42.1-69.82,81.72-.27,45.48,29.36,79.24,76.48,86.91-43.15,7.99-72.27,32.08-75.63,76.44-3.96,52.18,26.24,81,75.36,92.68-48.92,6.02-77.45,46.86-76.45,86.46,1.11,44.13,33.91,80.16,79.02,83.67,40.75,3.17,80.3-24.95,88.89-68.35,4.85-24.49-.38-47.12-15.27-67.15-14.84-19.97-35.17-31.1-60.28-34.93,48.5-14.48,60.24-25.35,76.91-70.12Z"/><path class="cls-1" d="m236.91,270.15c-16.67,44.77-28.41,55.63-76.91,70.12,25.11,3.83,45.44,14.96,60.28,34.93,14.88,20.03,20.11,42.66,15.27,67.15-8.59,43.4-48.14,71.51-88.89,68.35-45.11-3.5-77.91-39.54-79.02-83.67-1-39.6,27.53-80.44,76.45-86.46-49.12-11.67-79.32-40.5-75.36-92.68,3.36-44.36,32.49-68.46,75.63-76.44-47.13-7.67-76.75-41.43-76.48-86.91.23-39.62,31.3-75.51,69.82-81.72,45.18-7.28,88.1,20.55,99.26,69.11,0-7.69,0-15.38,0-23.07,0-14.51.02-29.01.01-43.52,0-2.44-.14-4.62,3.45-4.64,27.14-.17,54.4-1.47,80.73,7.06,66.96,21.7,108.23,67.09,119.64,136.5,15.28,93-47.06,178.47-140.47,194.14-19.53,3.28-39.83,1.89-59.78,2.72-3.88.16-3.63-2.35-3.63-4.96.02-22,.01-44,.01-66.01Zm-.21-29.27V101.09c-4.81,18.32-13.25,34.47-27.24,47.39-14.14,13.06-31.03,20.26-51.34,22.95,41.68,6.83,67.86,29.24,78.58,69.45Z"/><path class="cls-2" d="m236.7,240.87c-10.72-40.21-36.9-62.62-78.58-69.45,20.32-2.69,37.2-9.89,51.34-22.95,13.99-12.92,22.43-29.07,27.24-47.39v139.78Z"/></svg>